<?xml version="1.0" encoding="UTF-8"?>
<!DOCTYPE svg PUBLIC "-//W3C//DTD SVG 1.1//EN" "http://www.w3.org/Graphics/SVG/1.1/DTD/svg11.dtd">
<svg xmlns="http://www.w3.org/2000/svg" version="1.1" width="801px" height="819px" style="shape-rendering:geometricPrecision; text-rendering:geometricPrecision; image-rendering:optimizeQuality; fill-rule:evenodd; clip-rule:evenodd" xmlns:xlink="http://www.w3.org/1999/xlink">
<g><path style="opacity:1" fill="#000000" d="M -0.5,-0.5 C 266.5,-0.5 533.5,-0.5 800.5,-0.5C 800.5,272.5 800.5,545.5 800.5,818.5C 533.5,818.5 266.5,818.5 -0.5,818.5C -0.5,545.5 -0.5,272.5 -0.5,-0.5 Z"/></g>
<g><path style="opacity:1" fill="#fefefe" d="M 181.5,70.5 C 197.242,70.2861 209.075,76.9528 217,90.5C 245,143.833 273,197.167 301,250.5C 305.503,266.993 302.503,281.993 292,295.5C 278.333,309.167 264.667,322.833 251,336.5C 248.755,339.881 248.088,343.548 249,347.5C 256.335,373.167 267.668,396.833 283,418.5C 292.238,431.742 302.238,444.408 313,456.5C 345.994,490.502 380.494,522.668 416.5,553C 435.938,567.885 457.605,578.218 481.5,584C 486.257,584.81 490.924,584.476 495.5,583C 512.525,566.974 529.192,550.641 545.5,534C 562.918,522.564 580.918,521.564 599.5,531C 647.24,559.732 695.24,588.065 743.5,616C 763.569,630.434 767.402,648.268 755,669.5C 717.443,707.724 679.277,745.224 640.5,782C 626.194,790.432 610.694,794.599 594,794.5C 546.765,791.251 501.598,779.751 458.5,760C 410.7,738.286 366.366,711.286 325.5,679C 256.257,625.091 195.091,563.258 142,493.5C 97.466,433.761 65.1326,367.761 45,295.5C 38.7855,271.459 37.1188,247.126 40,222.5C 42.1722,208.493 47.8389,196.16 57,185.5C 93.58,149.919 129.747,114.086 165.5,78C 170.542,74.6426 175.876,72.1426 181.5,70.5 Z"/></g>
</svg>
